<svg width="319" height="246" viewBox="0 0 319 246" fill="none" xmlns="http://www.w3.org/2000/svg">
<path d="M314.886 16.345L297.798 19.688L159.238 69.589L20.679 19.688L3.591 16.345L0 216.198L136.703 223.132C136.703 223.132 151.067 230.066 159.239 228.085C167.411 230.066 181.775 223.132 181.775 223.132L318.478 216.198L314.886 16.345Z" fill="#2E0404"/>
<path d="M26.994 13.744C26.994 13.744 18.079 10.687 12.507 11.287C12.507 11.287 24.023 133.731 12.507 208.026C12.507 208.026 128.036 198.368 159.239 216.198L26.994 13.744Z" fill="#957272"/>
<path d="M38.386 67.582C38.386 67.582 21.01 63.263 11.04 67.963V83.266C11.04 83.266 31.565 80.423 41.017 83.266L38.386 67.582Z" fill="#D4AF37"/>
<path d="M38.138 13.001L23.65 9.65799C23.65 9.65799 29.222 158.248 20.678 182.765L56.711 187.966L38.138 13.001Z" fill="white"/>
<path d="M35.816 42.671C35.816 42.671 16.801 37.944 5.89101 43.087V59.833C5.89101 59.833 28.352 56.722 38.695 59.833L35.816 42.671Z" fill="#800000"/>
<path d="M52.997 11.287C52.997 11.287 41.481 6.68601 32.566 8.17201C32.566 8.17201 40.739 137.817 26.994 192.423C26.994 192.423 126.921 194.652 159.239 216.197L52.997 11.287Z" fill="#E38B8B"/>
<path d="M159.239 60.922V216.198C159.239 216.198 114.662 185.737 38.138 181.279C38.138 181.279 51.511 34.918 45.568 0C45.568 0 125.063 8.915 159.239 60.922Z" fill="white"/>
<path d="M291.483 13.744C291.483 13.744 300.398 10.687 305.971 11.287C305.971 11.287 294.455 133.731 305.971 208.026C305.971 208.026 190.442 198.368 159.239 216.198L291.483 13.744Z" fill="#957272"/>
<path d="M184.127 203.196C184.127 203.196 181.527 227.713 185.984 245.916L202.838 232.543L217.93 242.201C217.93 242.201 214.215 200.803 217.93 188.441L184.127 203.196Z" fill="#800000"/>
<path d="M280.339 13.001L294.827 9.65799C294.827 9.65799 289.255 158.248 297.799 182.765L261.766 187.966L280.339 13.001Z" fill="white"/>
<path d="M235.762 11.287C235.762 11.287 276.996 6.68601 285.911 8.17201C285.911 8.17201 277.739 137.817 291.483 192.423C291.483 192.423 191.556 194.652 159.238 216.197L235.762 11.287Z" fill="#E38B8B"/>
<path d="M159.239 60.922V216.198C159.239 216.198 189.718 185.737 266.242 181.279C266.242 181.279 252.869 34.918 258.812 0C258.812 0 193.414 8.915 159.239 60.922Z" fill="#F0F4F5"/>
<path d="M152.224 87.281C152.051 87.281 151.877 87.221 151.736 87.099C129.207 67.515 99.17 55.915 69.325 55.275C68.914 55.266 68.589 54.926 68.598 54.516C68.608 54.105 68.971 53.789 69.357 53.789C99.542 54.436 129.923 66.169 152.711 85.977C153.02 86.246 153.053 86.716 152.784 87.025C152.638 87.195 152.432 87.281 152.224 87.281Z" fill="black"/>
<path d="M148.888 101.972C148.757 101.972 148.625 101.938 148.505 101.865C122.869 86.432 93.502 78.142 63.581 77.891C63.17 77.887 62.841 77.552 62.844 77.141C62.847 76.733 63.179 76.405 63.587 76.405C63.587 76.405 63.591 76.405 63.593 76.405C93.781 76.658 123.408 85.022 149.272 100.592C149.623 100.803 149.736 101.26 149.526 101.611C149.386 101.844 149.139 101.972 148.888 101.972Z" fill="black"/>
<path d="M83.719 106.637C83.709 106.637 83.699 106.637 83.688 106.636L62.88 105.788C62.471 105.771 62.152 105.425 62.168 105.015C62.187 104.607 62.557 104.274 62.941 104.303L83.749 105.15C84.158 105.167 84.478 105.513 84.462 105.923C84.444 106.323 84.117 106.637 83.719 106.637Z" fill="black"/>
<path d="M153.561 136.683C153.384 136.683 153.208 136.621 153.066 136.494C138.262 123.267 119.236 114.845 99.494 112.778C99.085 112.736 98.789 112.37 98.832 111.962C98.874 111.553 99.245 111.255 99.648 111.301C119.699 113.399 139.021 121.953 154.056 135.385C154.362 135.659 154.388 136.129 154.116 136.434C153.968 136.599 153.765 136.683 153.561 136.683Z" fill="black"/>
<path d="M154.525 175.841C154.351 175.841 154.178 175.781 154.037 175.658C127.378 152.428 93.241 138.777 57.915 137.22C57.506 137.202 57.188 136.855 57.205 136.445C57.224 136.035 57.513 135.699 57.981 135.735C93.64 137.307 128.1 151.087 155.011 174.537C155.322 174.807 155.353 175.276 155.084 175.585C154.939 175.754 154.733 175.841 154.525 175.841Z" fill="black"/>
<path d="M138.366 187.922C138.234 187.922 138.1 187.887 137.98 187.813C121.914 178.025 104.602 170.416 86.529 165.2C86.134 165.086 85.908 164.674 86.021 164.28C86.136 163.886 86.548 163.659 86.941 163.772C105.142 169.026 122.574 176.687 138.752 186.545C139.103 186.758 139.213 187.215 139 187.566C138.861 187.795 138.616 187.922 138.366 187.922Z" fill="black"/>
<path d="M170.464 76.862C170.261 76.862 170.058 76.779 169.911 76.615C169.637 76.31 169.663 75.839 169.969 75.566C188.808 58.702 213.019 47.84 238.143 44.981C238.548 44.926 238.918 45.226 238.966 45.635C239.012 46.043 238.719 46.411 238.312 46.457C213.491 49.283 189.572 60.014 170.959 76.673C170.818 76.799 170.641 76.862 170.464 76.862Z" fill="black"/>
<path d="M174.398 143.211C174.172 143.211 173.948 143.108 173.803 142.912C173.558 142.583 173.625 142.118 173.954 141.872C182.023 135.851 192 132.152 202.045 131.457C202.437 131.43 202.808 131.737 202.837 132.147C202.865 132.557 202.556 132.912 202.146 132.94C192.382 133.615 182.686 137.21 174.841 143.063C174.708 143.163 174.553 143.211 174.398 143.211Z" fill="black"/>
<path d="M172.211 112.515C171.985 112.515 171.761 112.412 171.616 112.216C171.371 111.887 171.438 111.422 171.767 111.176C179.836 105.155 189.813 101.456 199.858 100.761C200.25 100.734 200.621 101.041 200.65 101.451C200.677 101.861 200.368 102.216 199.959 102.244C190.195 102.919 180.499 106.514 172.654 112.367C172.522 112.467 172.367 112.515 172.211 112.515Z" fill="black"/>
<path d="M168.541 178.003C168.312 178.003 168.085 177.897 167.94 177.697C167.699 177.365 167.772 176.9 168.104 176.66C192.343 159.037 222.181 149.885 252.137 150.892C252.548 150.906 252.868 151.249 252.855 151.659C252.84 152.07 252.536 152.408 252.087 152.377C222.434 151.389 192.947 160.433 168.977 177.862C168.846 177.957 168.694 178.003 168.541 178.003Z" fill="black"/>
<path d="M211.762 132.334C211.428 132.334 211.125 132.108 211.041 131.77C210.942 131.372 211.185 130.969 211.582 130.87C223.992 127.782 237.157 127.566 249.66 130.244C250.062 130.33 250.317 130.724 250.232 131.125C250.145 131.527 249.743 131.786 249.35 131.696C237.068 129.066 224.133 129.277 211.943 132.312C211.881 132.327 211.821 132.334 211.762 132.334Z" fill="black"/>
<path d="M65.19 18.62L62.843 40.688C62.843 40.688 132.598 56.511 152.966 76.861V65.77C152.966 65.77 118.148 33.121 65.19 18.62Z" fill="#F2CE5B"/>
<path d="M203.902 80.488L206.595 117.073C206.595 117.073 241.143 109.806 252.856 117.073C252.856 117.073 246.331 71.197 250.247 63.021C250.247 63.021 224.249 64.508 203.902 80.488Z" fill="#F2CE5B"/>
</svg>
