<svg width="253" height="248" viewBox="0 0 253 248" fill="none" xmlns="http://www.w3.org/2000/svg">
<path d="M121.494 247.979C186.309 247.979 238.852 245.651 238.852 242.778C238.852 239.905 186.309 237.577 121.494 237.577C56.6791 237.577 4.13629 239.905 4.13629 242.778C4.13629 245.651 56.6791 247.979 121.494 247.979Z" fill="#E4DCDA"/>
<path d="M129.426 227.82L131.337 239.816H102.514C100.139 239.816 98.3198 237.704 98.6719 235.355C98.9081 233.78 100.081 232.508 101.633 232.147L120.204 227.82H129.426Z" fill="#800000"/>
<path d="M121.325 106.528C121.325 106.528 118.111 105.945 113.474 117.431C101.866 146.187 120.204 227.819 120.204 227.819H129.426L130.786 146.187L148.858 226.956H157.578L154.663 164.975C154.069 152.503 151.853 140.162 148.071 128.261L144.149 115.919L121.325 106.528Z" fill="#122849"/>
<path d="M110.141 78.3353L104.8 100.979C104.451 102.459 103.777 102.751 102.811 102.673C100.489 102.486 98.235 101.799 96.087 100.898L80.0466 94.166L80.1806 96.6156C80.3476 99.6644 82.2464 102.348 85.0662 103.519L105.379 111.958C108.446 111.958 111.103 109.832 111.776 106.84L118.078 80.7907L110.141 78.3353Z" fill="#EDAC7C"/>
<path d="M121.099 89.3529L106.472 85.5973L109.415 74.137C110.452 70.098 114.567 67.6646 118.606 68.702C122.645 69.7388 125.079 73.8542 124.041 77.8933L121.099 89.3529Z" fill="#800000"/>
<path d="M113.556 69.0651L125.156 64.3504L134.26 64.4481L148.484 70.3815C148.484 70.3815 141.07 95.8687 141.558 102.445C142.046 109.023 145.928 116.465 145.928 116.465H113.555C113.555 116.465 119.351 104.738 118.078 97.8193C116.806 90.9016 113.556 69.0651 113.556 69.0651Z" fill="#800000"/>
<path d="M142.331 22.9639C137.797 14.4787 113.826 11.4745 109.418 38.148C106.204 57.5861 128.073 62.1694 139.158 58.6099C158.016 52.5549 146.867 31.4484 142.331 22.9639Z" fill="#3E150D"/>
<path d="M146.234 41.0079C146.234 41.0079 149.624 36.6563 152.742 39.5162C155.862 42.376 151.403 51.1893 145.429 49.1164L146.234 41.0079Z" fill="#EDAC7C"/>
<path d="M145.929 44.0814L145.513 48.2557C150.681 49.1837 153.63 41.9878 151.253 40.9904C149.331 40.1828 146.946 42.7074 145.929 44.0814Z" fill="#F7A588"/>
<path d="M152.086 42.4796C152.086 42.4796 152.076 42.4479 152.06 42.3877C152.044 42.3275 152.016 42.2427 151.982 42.1372C151.906 41.9308 151.772 41.6311 151.519 41.4163C151.455 41.3619 151.382 41.3192 151.306 41.2823C151.267 41.2648 151.229 41.2474 151.184 41.2331L151.154 41.2221L151.153 41.2215C151.175 41.2305 151.158 41.2241 151.162 41.2254L151.158 41.2234L151.147 41.2208L151.127 41.2157L151.046 41.1943C150.987 41.1762 150.942 41.1704 150.899 41.1632C150.856 41.1555 150.808 41.1496 150.754 41.1464C150.705 41.1419 150.653 41.1386 150.602 41.1406C150.549 41.1399 150.497 41.138 150.444 41.1451C150.02 41.1749 149.571 41.3406 149.143 41.5703C148.925 41.6823 148.718 41.8162 148.514 41.9515C148.312 42.09 148.114 42.2324 147.926 42.3767C147.55 42.6679 147.208 42.9598 146.912 43.2116C146.322 43.7332 145.93 44.0801 145.93 44.0801C145.93 44.0801 145.981 43.9571 146.091 43.7526C146.203 43.5487 146.372 43.2627 146.607 42.9417C146.726 42.7818 146.856 42.6077 147.008 42.4356C147.159 42.2622 147.326 42.0835 147.509 41.9094C147.877 41.5619 148.307 41.2189 148.803 40.9542C149.052 40.8241 149.314 40.7102 149.59 40.6332C149.865 40.5555 150.155 40.5148 150.437 40.5251C150.507 40.5258 150.576 40.5329 150.648 40.5419C150.716 40.5465 150.783 40.562 150.851 40.5769C150.916 40.5898 150.983 40.6086 151.052 40.6319C151.121 40.6539 151.187 40.6759 151.231 40.6999L151.31 40.7367L151.358 40.7587L151.403 40.7833C151.462 40.8138 151.515 40.85 151.566 40.8882C151.666 40.9671 151.752 41.0539 151.821 41.1451C151.963 41.325 152.034 41.5185 152.074 41.6842C152.117 41.8499 152.122 41.9968 152.123 42.1133C152.123 42.2304 152.11 42.3236 152.102 42.3851C152.091 42.4479 152.086 42.4796 152.086 42.4796Z" fill="#CF9166"/>
<path d="M114.812 40.6688C114.812 40.6688 111.518 36.246 108.339 39.0379C105.157 41.8286 109.425 50.7363 115.444 48.7935L114.812 40.6688Z" fill="#EDAC7C"/>
<path d="M115.052 43.7487L115.376 47.9302C110.192 48.7476 107.398 41.4907 109.796 40.5439C111.734 39.7789 114.066 42.3534 115.052 43.7487Z" fill="#F7A588"/>
<path d="M108.932 42.0149C108.932 42.0149 108.941 41.9839 108.959 41.9243C108.976 41.8641 109.005 41.7807 109.043 41.6752C109.122 41.4694 109.262 41.1729 109.522 40.9639C109.585 40.9121 109.658 40.8707 109.737 40.8345C109.777 40.8196 109.815 40.8002 109.857 40.7898L109.89 40.7801L109.892 40.7795C109.868 40.7879 109.887 40.7801 109.883 40.7821H109.887L109.897 40.7788L109.917 40.7736L110 40.7536C110.058 40.7368 110.104 40.7322 110.148 40.7264C110.191 40.718 110.239 40.7141 110.292 40.7122C110.342 40.7089 110.392 40.7076 110.444 40.7096C110.496 40.7102 110.548 40.7109 110.601 40.7186C111.025 40.7562 111.471 40.9316 111.894 41.1704C112.108 41.2875 112.313 41.4253 112.515 41.5664C112.714 41.7088 112.909 41.8551 113.094 42.0046C113.463 42.3029 113.798 42.6013 114.089 42.8595C114.667 43.3934 115.051 43.7494 115.051 43.7494C115.051 43.7494 115.002 43.6245 114.896 43.4187C114.791 43.2135 114.627 42.9223 114.398 42.5961C114.283 42.4343 114.156 42.2576 114.008 42.0822C113.861 41.9056 113.699 41.7237 113.519 41.5451C113.16 41.1904 112.737 40.8384 112.247 40.5614C112.002 40.4261 111.74 40.307 111.465 40.2242C111.192 40.1407 110.905 40.0935 110.622 40.098C110.55 40.0973 110.481 40.1038 110.411 40.1109C110.341 40.1142 110.274 40.1265 110.206 40.1413C110.141 40.1517 110.074 40.1698 110.005 40.1918C109.936 40.2119 109.87 40.2326 109.823 40.2565L109.745 40.2889L109.696 40.3109L109.651 40.3342C109.592 40.3633 109.537 40.3989 109.484 40.4358C109.385 40.5128 109.296 40.5963 109.224 40.6863C109.078 40.8642 109.005 41.0552 108.961 41.2189C108.914 41.3846 108.906 41.5308 108.902 41.6486C108.899 41.7664 108.911 41.859 108.917 41.9204C108.927 41.9826 108.932 42.0149 108.932 42.0149Z" fill="#CF9166"/>
<path d="M134.13 54.3929L125.624 54.3004C125.624 54.3004 125.152 67.6167 125.121 67.6161C125.121 67.6161 125.717 70.2792 129.49 70.3789C133.264 70.4773 134.225 67.7132 134.225 67.7132C134.194 67.64 134.13 54.3929 134.13 54.3929Z" fill="#EDAC7C"/>
<path d="M134.077 59.2908L125.571 59.1982C125.571 59.1982 125.188 64.3511 125.156 64.3504C125.156 64.3504 125.753 67.0136 129.526 67.1132C133.3 67.2116 134.26 64.4475 134.26 64.4475C134.23 64.3744 134.077 59.2908 134.077 59.2908Z" fill="#CF9166"/>
<path d="M134.104 56.8418L125.597 56.7493C125.597 56.7493 125.471 58.4494 125.357 59.8959C125.34 60.1056 127.78 60.501 128.045 60.5463C130.124 60.899 132.177 60.6537 134.209 60.1599C134.158 58.6779 134.104 56.8418 134.104 56.8418Z" fill="#CF9166"/>
<path d="M150.572 37.5429C150.458 48.1496 141.161 56.6516 129.808 56.5292C118.455 56.4069 109.344 47.7075 109.458 37.099C109.572 26.4904 118.868 17.9897 130.222 18.112C141.575 18.2343 150.687 26.9331 150.572 37.5429Z" fill="#3E150D"/>
<path d="M148.389 37.2588C148.248 31.3468 145.766 25.7396 139.952 23.3832C136.995 22.184 133.737 21.8384 130.559 21.8553C127.42 21.8721 124.074 22.0397 121.112 23.1451C115.804 25.1268 116.543 27.8701 115.946 33.2618C115.888 33.7906 112.312 36.3391 112.289 36.8698C112.232 38.0865 112.126 39.2845 112.158 40.507C112.23 43.2556 112.637 46.0151 113.505 48.6336C114.558 51.8106 116.341 54.7663 118.957 56.9389C120.442 58.1737 122.158 59.1244 123.981 59.7904C126.989 60.8867 129.862 61.2698 133.027 60.7223C135.172 60.3521 137.267 59.6745 139.158 58.6112C142.296 56.8483 144.662 54.0816 146.155 50.869C147.409 48.1657 148.08 45.2165 148.346 42.2647C148.493 40.6487 148.541 39.0049 148.401 37.3882C148.397 37.3442 148.39 37.3015 148.389 37.2588Z" fill="#EDAC7C"/>
<path d="M134.698 42.4466C134.615 44.1247 135.797 45.5466 137.339 45.6217C138.881 45.6974 140.199 44.3972 140.283 42.7178C140.366 41.039 139.185 39.6178 137.642 39.5427C136.101 39.467 134.783 40.7678 134.698 42.4466Z" fill="#CF9166"/>
<path d="M134.734 41.736C134.649 43.4148 135.832 44.836 137.373 44.9117C138.916 44.9874 140.234 43.6879 140.317 42.0091C140.403 40.331 139.22 38.9078 137.677 38.8328C136.137 38.7583 134.818 40.0579 134.734 41.736Z" fill="black"/>
<path d="M135.734 40.96C135.704 41.5677 136.181 42.0848 136.799 42.1152C137.418 42.1456 137.944 41.679 137.974 41.0694C138.004 40.4623 137.527 39.9452 136.909 39.9148C136.291 39.8831 135.764 40.3517 135.734 40.96Z" fill="white"/>
<path d="M118.048 41.7903C117.964 43.4691 119.145 44.891 120.687 44.966C122.23 45.0418 123.547 43.7403 123.631 42.0634C123.715 40.3853 122.534 38.9628 120.991 38.8877C119.451 38.812 118.131 40.1109 118.048 41.7903Z" fill="#CF9166"/>
<path d="M118.083 41.0798C117.998 42.7585 119.182 44.1797 120.723 44.2555C122.266 44.3305 123.584 43.0316 123.667 41.3516C123.753 39.6741 122.57 38.2509 121.027 38.1765C119.486 38.1021 118.167 39.4029 118.083 41.0798Z" fill="black"/>
<path d="M119.083 40.3051C119.053 40.9121 119.528 41.4299 120.147 41.4596C120.767 41.4901 121.293 41.0215 121.324 40.4132C121.354 39.8061 120.878 39.2884 120.258 39.2579C119.64 39.2282 119.114 39.6961 119.083 40.3051Z" fill="white"/>
<path d="M129.019 40.3426C129.019 40.3426 129.429 44.038 127.689 43.7313C124.321 43.141 124.312 50.3597 129.397 47.6726C131.317 46.6597 130.685 40.3931 130.685 40.3931L129.019 40.3426Z" fill="#F48470"/>
<path d="M125.45 50.924C125.45 50.924 132.228 52.0514 135.448 48.1683C135.448 48.1683 138.156 55.4239 130.879 56.3539C126.283 56.9402 125.45 50.924 125.45 50.924Z" fill="#B43128"/>
<path d="M127.755 55.4996C128.526 56.1345 129.542 56.5234 130.879 56.3539C132.53 56.1422 133.665 55.6051 134.437 54.9022C134.658 54.6906 134.856 54.4647 135.035 54.2292C135.04 54.2246 135.044 54.2188 135.047 54.2136C135.051 54.2104 135.051 54.2085 135.053 54.2052C135.607 53.4208 135.847 52.5213 135.916 51.6612C131.828 50.5907 128.896 53.7878 127.755 55.4996Z" fill="#F05736"/>
<path d="M125.45 50.924C125.45 50.924 125.459 50.9758 125.474 51.0677C126.134 51.2042 127.355 52.6371 128.999 52.5795C130.039 52.5458 131.059 52.2591 131.994 51.8178C132.576 51.5453 133.174 51.2819 133.677 50.8793C134.062 50.5719 134.338 49.6601 134.5 49.097C131.064 51.8566 125.452 50.924 125.45 50.924Z" fill="white"/>
<path d="M130.204 56.7545C125.93 56.7085 125.093 51.034 125.087 50.9726C125.07 50.86 125.11 50.7448 125.193 50.6652C125.279 50.5849 125.395 50.5474 125.512 50.5681C125.577 50.5778 132.118 51.612 135.162 47.9392C135.246 47.8389 135.377 47.7884 135.509 47.8117C135.64 47.8324 135.748 47.9211 135.794 48.0447C135.848 48.1878 137.094 51.61 135.517 54.1696C134.647 55.5779 133.103 56.4348 130.927 56.7124C130.674 56.7441 130.436 56.7571 130.204 56.7545ZM125.903 51.3499C126.197 52.707 127.331 56.4412 130.833 55.9927C132.773 55.7462 134.137 55.0058 134.885 53.7962C135.918 52.1258 135.549 49.9345 135.282 48.8919C132.37 51.7809 127.5 51.5233 125.903 51.3499Z" fill="#F05B4E"/>
<path d="M122.813 50.5286C122.796 52.0773 121.506 53.3192 119.93 53.3024C118.354 53.2849 117.089 52.0158 117.104 50.4665C117.123 48.9178 118.413 47.6758 119.989 47.692C121.566 47.7101 122.83 48.9786 122.813 50.5286Z" fill="#F49B77"/>
<path d="M143.3 48.9449C143.283 50.4949 141.992 51.7369 140.415 51.72C138.84 51.7032 137.576 50.4341 137.591 48.8854C137.61 47.336 138.9 46.0948 140.475 46.1109C142.052 46.1284 143.317 47.3975 143.3 48.9449Z" fill="#F49B77"/>
<path d="M117.259 37.0828C117.259 37.0828 117.322 36.9663 117.469 36.787C117.544 36.7003 117.635 36.587 117.753 36.4783C117.867 36.3624 118.004 36.2434 118.163 36.1191C118.32 35.9955 118.499 35.8706 118.694 35.7515C118.892 35.6357 119.104 35.5121 119.336 35.4143C119.562 35.3037 119.808 35.2176 120.061 35.1341C120.312 35.0461 120.578 34.9988 120.84 34.9315C121.105 34.8901 121.372 34.8493 121.635 34.8241C121.899 34.8092 122.159 34.8021 122.408 34.8021C122.66 34.817 122.901 34.8377 123.128 34.8603C123.357 34.8862 123.568 34.9393 123.762 34.9781C123.956 35.0228 124.133 35.0597 124.286 35.1186C124.439 35.1703 124.571 35.2221 124.679 35.2629C124.892 35.3457 125.012 35.4046 125.012 35.4046C125.012 35.4046 124.876 35.424 124.648 35.4396C124.535 35.448 124.396 35.459 124.239 35.4648C124.085 35.4655 123.909 35.4862 123.718 35.5004C123.529 35.5185 123.326 35.5179 123.111 35.5418C122.897 35.5651 122.674 35.5871 122.443 35.604C122.213 35.635 121.979 35.6706 121.737 35.6959C121.501 35.7366 121.26 35.7768 121.02 35.8195C120.9 35.8454 120.781 35.8719 120.663 35.8971C120.543 35.9237 120.424 35.9424 120.31 35.9767C120.194 36.0091 120.078 36.0369 119.963 36.0647C119.848 36.0906 119.741 36.1327 119.63 36.1625C119.407 36.222 119.199 36.2964 118.995 36.3618C118.893 36.3916 118.8 36.4356 118.705 36.4673C118.61 36.5022 118.517 36.532 118.432 36.5702C118.257 36.6375 118.095 36.7022 117.955 36.7637C117.81 36.8226 117.689 36.8821 117.583 36.9268C117.485 36.9773 117.398 37.0109 117.346 37.0407C117.289 37.0692 117.259 37.0828 117.259 37.0828Z" fill="black"/>
<path d="M141.558 37.9778C141.558 37.9778 141.498 37.86 141.355 37.6769C141.279 37.5889 141.194 37.473 141.08 37.3611C140.967 37.2439 140.83 37.1216 140.678 36.9928C140.524 36.8666 140.347 36.7398 140.152 36.6155C139.955 36.4951 139.748 36.367 139.517 36.2647C139.293 36.1482 139.049 36.057 138.8 35.9683C138.55 35.8745 138.285 35.8214 138.025 35.7496C137.76 35.701 137.496 35.6551 137.233 35.6247C136.969 35.6033 136.708 35.591 136.458 35.5858C136.208 35.5949 135.966 35.6104 135.738 35.6286C135.511 35.6493 135.298 35.6978 135.103 35.7321C134.908 35.7716 134.729 35.8065 134.577 35.8602C134.422 35.9094 134.289 35.9586 134.181 35.9968C133.962 36.0758 133.843 36.1308 133.843 36.1308C133.843 36.1308 133.978 36.1541 134.206 36.1748C134.32 36.1858 134.458 36.2 134.614 36.2084C134.77 36.2123 134.944 36.2363 135.135 36.255C135.323 36.277 135.527 36.2816 135.742 36.3094C135.956 36.3372 136.177 36.3651 136.408 36.3858C136.637 36.4226 136.873 36.4634 137.112 36.4925C137.349 36.5378 137.587 36.5851 137.827 36.6317C137.946 36.6602 138.064 36.6886 138.182 36.7171C138.299 36.7456 138.418 36.7669 138.534 36.8058C138.647 36.8407 138.763 36.8711 138.876 36.9003C138.991 36.9287 139.099 36.9728 139.208 37.0051C139.43 37.0698 139.636 37.1488 139.839 37.2193C139.94 37.2497 140.032 37.2963 140.126 37.33C140.221 37.3662 140.314 37.3992 140.398 37.4374C140.57 37.5106 140.731 37.5766 140.871 37.6419C141.015 37.7041 141.135 37.7662 141.237 37.8134C141.336 37.8665 141.421 37.9021 141.474 37.9325C141.529 37.961 141.558 37.9778 141.558 37.9778Z" fill="black"/>
<path d="M148.693 37.451C148.693 37.451 149.011 35.171 149.022 32.2147C148.969 35.2221 148.693 37.451 148.693 37.451Z" fill="#CF9166"/>
<path d="M148.168 45.5472C148.168 45.5472 149.705 42.7113 152.484 37.5591C152.484 37.5591 152.745 24.5327 149.391 23.1451C146.038 21.7576 145.944 21.5738 145.944 21.5738C145.944 21.5738 143.327 17.3205 136.732 15.3168C130.136 13.3131 122.815 15.1589 117.88 18.5857C112.945 22.0125 106.936 34.7167 112.274 34.8325C117.612 34.9484 126.674 27.4113 126.674 27.4113C126.674 27.4113 125.727 27.4385 123.315 29.3749C119.863 32.1461 123.242 32.4399 130.966 32.704C138.69 32.968 143.27 30.2809 143.27 30.2809C143.27 30.2809 142.979 32.6444 144.117 36.1463C145.255 39.6488 148.41 43.6394 148.41 43.6394" fill="#361710"/>
<path d="M143.3 23.2985C150.477 23.2985 156.295 18.0829 156.295 11.6492C156.295 5.21555 150.477 0 143.3 0C136.123 0 130.305 5.21555 130.305 11.6492C130.305 18.0829 136.123 23.2985 143.3 23.2985Z" fill="#361710"/>
<path d="M119.43 49.4012C115.169 49.4012 112.801 47.7483 112.207 44.3758C112.046 43.4614 112.313 42.5288 112.939 41.8175C113.57 41.1018 114.492 40.6908 115.468 40.6908H123.11C124.026 40.6908 124.882 41.0817 125.46 41.7632C126.041 42.4479 126.266 43.3378 126.079 44.2037C125.401 47.3289 123.685 49.0996 121.117 49.3235C120.525 49.3753 119.962 49.4012 119.43 49.4012ZM115.468 42.0292C114.903 42.0292 114.369 42.2667 114.004 42.6815C113.643 43.0912 113.49 43.6277 113.582 44.1532C113.967 46.3368 115.148 48.4984 120.991 47.9923C122.913 47.8247 124.166 46.4585 124.713 43.9319C124.815 43.462 124.693 42.9792 124.379 42.6077C124.067 42.2401 123.604 42.0292 123.111 42.0292H115.468Z" fill="#361710"/>
<path d="M124.799 41.7554C125.103 42.1495 125.32 42.6071 125.443 43.0931H130.008C130.05 42.6284 130.17 42.1728 130.366 41.7554H124.799Z" fill="#361710"/>
<path d="M135.848 49.4031C131.587 49.4031 129.219 47.7502 128.625 44.3778C128.464 43.4633 128.731 42.5307 129.357 41.8195C129.988 41.1037 130.91 40.6927 131.886 40.6927H139.528C140.444 40.6927 141.3 41.0836 141.878 41.7651C142.459 42.4505 142.685 43.3397 142.497 44.2056C141.819 47.3308 140.104 49.1015 137.536 49.3255C136.944 49.3772 136.381 49.4031 135.848 49.4031ZM131.886 42.0304C131.321 42.0304 130.788 42.268 130.423 42.6828C130.061 43.0925 129.908 43.629 130.001 44.1545C130.386 46.3381 131.566 48.4997 137.41 47.9936C139.332 47.8259 140.584 46.4597 141.131 43.9331C141.234 43.4633 141.111 42.9805 140.797 42.609C140.485 42.2414 140.023 42.0304 139.529 42.0304H131.886Z" fill="#361710"/>
<path d="M150.445 40.8642C150.134 40.7626 149.81 40.6927 149.472 40.6927H141.83C141.371 40.6927 140.925 40.7866 140.515 40.9568C140.98 41.2318 141.345 41.613 141.615 42.0524C141.687 42.0447 141.757 42.0298 141.83 42.0298H149.472C149.657 42.0298 149.833 42.068 150.003 42.1243C150.078 41.681 150.225 41.2512 150.445 40.8642Z" fill="#361710"/>
<path d="M110.886 108.444H88.187C87.0343 108.444 85.9794 107.227 85.4559 105.294L77.7868 76.9724C77.5797 76.208 77.8748 75.3026 78.3304 75.3026H103.107C103.75 75.3026 104.339 75.9815 104.631 77.0597L112.11 104.681C112.576 106.403 111.912 108.444 110.886 108.444Z" fill="#9F9DAE"/>
<path d="M143.393 80.0963L138.051 102.74C137.703 104.22 137.029 104.512 136.063 104.434C133.741 104.247 131.486 103.56 129.338 102.659L113.298 95.927L113.705 103.364L138.631 113.719C141.697 113.719 144.354 111.593 145.027 108.601L151.329 82.5517L143.393 80.0963Z" fill="#EDAC7C"/>
<path d="M151.151 91.244L136.525 87.4884L139.468 76.0281C140.505 71.9891 144.62 69.5557 148.659 70.5931C152.698 71.6299 155.131 75.7453 154.094 79.7844L151.151 91.244Z" fill="#800000"/>
<path d="M115.052 97.8776C115.052 97.8776 114.78 94.6786 111.978 91.873C109.176 89.0675 110.347 88.9827 109.176 89.0675C108.006 89.1517 108.508 90.5496 108.904 91.873C109.3 93.1965 110.185 94.6126 110.185 94.6126C110.185 94.6126 108.012 93.7906 106.472 91.9565C104.932 90.1224 103.799 89.2429 103.637 90.6538C103.475 92.0646 104.608 93.348 104.608 93.348C104.608 93.348 103.314 91.2019 102.828 91.9565C102.343 92.7111 102.828 94.6126 102.828 94.6126C102.828 94.6126 101.724 93.2852 101.372 94.6126C101.048 95.8325 102.828 96.9075 102.828 96.9075C102.828 96.9075 100.969 95.6021 101.333 96.9075C101.696 98.2128 105.696 101.287 107.256 101.611C108.815 101.934 114.74 103.793 114.74 103.793L115.052 97.8776Z" fill="#EDAC7C"/>
<path d="M82.9273 99.0975L80.0474 94.166C80.0474 94.166 81.4226 91.0045 81.4246 90.4078C81.4265 89.8111 82.2206 93.348 82.2206 93.348C82.2206 93.348 85.0306 90.7165 85.1924 91.9565C85.3542 93.1965 84.6262 93.8437 84.6262 93.8437C84.6262 93.8437 87.134 93.1965 86.1632 94.6125C85.2015 96.0156 86.6486 94.8041 87.0531 95.4895C87.6867 96.5638 86.7547 96.9806 86.7547 96.9806C86.7547 96.9806 88.6328 96.5793 87.4964 97.8025C86.8117 98.5396 86.149 98.5202 85.2733 99.0205C84.3977 99.5208 83.7719 100.638 83.7719 100.638L82.9273 99.0975Z" fill="#EDAC7C"/>
<path d="M236.814 168.552H200.464C196.193 168.552 193.148 165.035 193.698 160.737L201.054 103.262C201.604 98.9636 205.548 95.4468 209.82 95.4468H246.17C250.441 95.4468 253.486 98.9636 252.936 103.262L245.58 160.737C245.03 165.035 241.085 168.552 236.814 168.552Z" fill="#D4AF37"/>
<path d="M225.441 168.552H189.092C184.821 168.552 181.776 165.035 182.326 160.737L189.682 103.262C190.232 98.9636 194.177 95.4468 198.449 95.4468H234.798C239.07 95.4468 242.115 98.9636 241.565 103.262L234.209 160.737C233.657 165.035 229.713 168.552 225.441 168.552Z" fill="#800000"/>
<path d="M234.049 178.897H187.699C184.503 178.897 181.889 176.282 181.889 173.086C181.889 169.891 184.503 167.276 187.699 167.276H234.049C237.245 167.276 239.859 169.891 239.859 173.086C239.859 176.282 237.245 178.897 234.049 178.897Z" fill="#D4AF37"/>
<path d="M190.26 102.611L184.919 125.255C184.221 128.215 181.578 130.306 178.537 130.306L157.578 133.327L161.868 138.175H185.499C188.565 138.175 191.222 136.05 191.896 133.058L198.197 105.066L190.26 102.611Z" fill="#CF9166"/>
<path d="M199.403 113.057L184.776 109.301L187.719 97.8407C188.757 93.8016 192.871 91.3682 196.91 92.4057C200.95 93.4431 203.383 97.5579 202.345 101.597L199.403 113.057Z" fill="#9F9DAE"/>
<path d="M197.054 91.9565H216.261C221.024 91.9565 224.811 95.9542 224.555 100.71L225.232 143.529H190.098V98.9118C190.098 95.0708 193.212 91.9565 197.054 91.9565Z" fill="#234788"/>
<path d="M218.706 50.4606C214.171 41.9761 190.2 38.9712 185.792 65.6448C182.579 85.0828 204.448 89.6662 215.532 86.1067C234.391 80.051 223.241 58.9445 218.706 50.4606Z" fill="#3E150D"/>
<path d="M222.608 68.5046C222.608 68.5046 225.998 64.153 229.117 67.0129C232.237 69.8728 227.778 78.6861 221.803 76.6132L222.608 68.5046Z" fill="#EDAC7C"/>
<path d="M222.303 71.5775L221.888 75.7518C227.056 76.6798 230.005 69.4838 227.628 68.4865C225.706 67.6795 223.319 70.2041 222.303 71.5775Z" fill="#F7A588"/>
<path d="M228.46 69.9763C228.46 69.9763 228.45 69.9446 228.435 69.8844C228.419 69.8242 228.39 69.7395 228.356 69.634C228.28 69.4275 228.147 69.1279 227.893 68.913C227.83 68.8587 227.756 68.8159 227.681 68.7791C227.641 68.7616 227.603 68.7441 227.558 68.7299L227.529 68.7189L227.527 68.7182C227.549 68.7273 227.532 68.7208 227.536 68.7221L227.532 68.7202L227.52 68.7176L227.501 68.7124L227.419 68.691C227.36 68.6729 227.315 68.6671 227.272 68.66C227.229 68.6522 227.181 68.6464 227.127 68.6431C227.078 68.6386 227.026 68.6354 226.975 68.6373C226.922 68.6367 226.87 68.6347 226.817 68.6418C226.393 68.6716 225.944 68.8373 225.516 69.067C225.298 69.179 225.091 69.313 224.887 69.4482C224.685 69.5867 224.487 69.7291 224.299 69.8734C223.923 70.164 223.581 70.4565 223.285 70.7083C222.696 71.2299 222.303 71.5768 222.303 71.5768C222.303 71.5768 222.354 71.4538 222.464 71.2493C222.576 71.0455 222.745 70.7594 222.98 70.4384C223.099 70.2786 223.229 70.1045 223.381 69.9323C223.532 69.7589 223.699 69.5803 223.882 69.4062C224.25 69.0586 224.68 68.7156 225.176 68.4509C225.425 68.3208 225.687 68.2069 225.962 68.1299C226.238 68.0523 226.527 68.0115 226.81 68.0219C226.88 68.0225 226.949 68.0296 227.02 68.0387C227.089 68.0432 227.156 68.0587 227.223 68.0736C227.289 68.0866 227.356 68.1053 227.424 68.1286C227.494 68.1506 227.559 68.1726 227.604 68.1966L227.682 68.2335L227.731 68.2555L227.775 68.2801C227.833 68.3105 227.887 68.3467 227.938 68.3849C228.037 68.4639 228.124 68.5506 228.193 68.6418C228.335 68.8224 228.406 69.0153 228.446 69.181C228.488 69.3466 228.494 69.4935 228.494 69.6107C228.495 69.7278 228.481 69.821 228.474 69.8825C228.465 69.944 228.46 69.9763 228.46 69.9763Z" fill="#CF9166"/>
<path d="M191.187 68.1655C191.187 68.1655 187.893 63.7427 184.713 66.5347C181.531 69.3259 185.8 78.2331 191.819 76.2902L191.187 68.1655Z" fill="#EDAC7C"/>
<path d="M191.426 71.2455L191.75 75.4269C186.565 76.2443 183.771 68.9875 186.17 68.0406C188.108 67.2757 190.44 69.8495 191.426 71.2455Z" fill="#F7A588"/>
<path d="M185.306 69.5117C185.306 69.5117 185.315 69.4806 185.333 69.4211C185.351 69.3609 185.38 69.2774 185.417 69.1719C185.497 68.9661 185.637 68.6697 185.896 68.46C185.959 68.4082 186.032 68.3668 186.111 68.3306C186.151 68.3157 186.189 68.2963 186.232 68.2859L186.265 68.2756L186.266 68.2749C186.243 68.2833 186.262 68.2756 186.257 68.2775H186.261L186.272 68.2743L186.292 68.2691L186.375 68.249C186.432 68.2322 186.478 68.2277 186.522 68.2218C186.565 68.2134 186.613 68.2095 186.666 68.2076C186.717 68.2044 186.767 68.2031 186.818 68.205C186.87 68.2057 186.922 68.2063 186.976 68.2141C187.399 68.2516 187.846 68.427 188.269 68.6658C188.482 68.783 188.688 68.9208 188.889 69.0619C189.088 69.2043 189.284 69.3505 189.468 69.5C189.838 69.7984 190.173 70.0967 190.463 70.355C191.041 70.8889 191.426 71.2448 191.426 71.2448C191.426 71.2448 191.377 71.1199 191.271 70.9141C191.166 70.709 191.002 70.4177 190.773 70.0916C190.658 69.9298 190.531 69.7531 190.383 69.5777C190.236 69.401 190.074 69.2198 189.894 69.0405C189.534 68.6859 189.111 68.3338 188.622 68.0568C188.377 67.9216 188.114 67.8025 187.84 67.7196C187.567 67.6361 187.279 67.5889 186.996 67.5934C186.925 67.5928 186.855 67.5993 186.785 67.6064C186.716 67.6096 186.649 67.6219 186.58 67.6368C186.516 67.6472 186.448 67.6653 186.379 67.6873C186.31 67.7073 186.244 67.728 186.197 67.752L186.12 67.7844L186.07 67.8064L186.026 67.8297C185.966 67.8588 185.911 67.8944 185.859 67.9313C185.759 68.0083 185.67 68.0918 185.599 68.1817C185.453 68.3597 185.379 68.5506 185.335 68.715C185.289 68.88 185.281 69.0269 185.277 69.1447C185.274 69.2625 185.285 69.3551 185.292 69.4165C185.302 69.4787 185.306 69.5117 185.306 69.5117Z" fill="#CF9166"/>
<path d="M210.504 81.889L201.997 81.7964C201.997 81.7964 201.526 95.1128 201.495 95.1122C201.495 95.1122 202.091 97.7753 205.864 97.875C209.638 97.9734 210.598 95.2092 210.598 95.2092C210.569 95.1361 210.504 81.889 210.504 81.889Z" fill="#EDAC7C"/>
<path d="M210.451 86.7869L201.945 86.6943C201.945 86.6943 201.562 91.8472 201.531 91.8465C201.531 91.8465 202.127 94.5097 205.9 94.6093C209.674 94.7077 210.635 91.9436 210.635 91.9436C210.604 91.8711 210.451 86.7869 210.451 86.7869Z" fill="#CF9166"/>
<path d="M210.477 84.3379L201.971 84.2454C201.971 84.2454 201.845 85.9455 201.731 87.392C201.713 87.6017 204.154 87.9971 204.418 88.0424C206.497 88.3951 208.551 88.1498 210.583 87.656C210.532 86.174 210.477 84.3379 210.477 84.3379Z" fill="#CF9166"/>
<path d="M226.946 65.0397C226.832 75.6463 217.535 84.1483 206.183 84.026C194.83 83.9037 185.719 75.2043 185.833 64.5957C185.947 53.9871 195.243 45.4864 206.597 45.6087C217.949 45.731 227.061 54.4298 226.946 65.0397Z" fill="#3E150D"/>
<path d="M224.763 64.7549C224.622 58.8429 222.14 53.2358 216.326 50.8794C213.369 49.6801 210.112 49.3346 206.933 49.3514C203.794 49.3682 200.449 49.5358 197.486 50.6412C192.178 52.6229 192.917 55.3663 192.321 60.7579C192.262 61.2867 188.686 63.8353 188.663 64.366C188.607 65.5827 188.5 66.7806 188.532 68.0031C188.605 70.7517 189.012 73.5113 189.88 76.1298C190.933 79.3068 192.715 82.2624 195.331 84.435C196.816 85.6705 198.532 86.6212 200.355 87.2865C203.364 88.3828 206.236 88.7659 209.401 88.2184C211.546 87.8482 213.641 87.1706 215.532 86.1073C218.669 84.3444 221.035 81.5784 222.529 78.3651C223.783 75.6618 224.453 72.7126 224.72 69.7609C224.866 68.1448 224.915 66.501 224.775 64.8843C224.771 64.8403 224.765 64.7983 224.763 64.7549Z" fill="#EDAC7C"/>
<path d="M211.073 69.9427C210.989 71.6208 212.172 73.0427 213.713 73.1178C215.256 73.1935 216.573 71.8933 216.657 70.2139C216.741 68.5351 215.56 67.1139 214.017 67.0388C212.475 66.9637 211.157 68.2639 211.073 69.9427Z" fill="#CF9166"/>
<path d="M211.108 69.2321C211.023 70.9109 212.206 72.3321 213.748 72.4078C215.291 72.4835 216.608 71.184 216.692 69.5052C216.777 67.8271 215.595 66.4039 214.052 66.3288C212.512 66.2544 211.192 67.554 211.108 69.2321Z" fill="black"/>
<path d="M212.108 68.4561C212.078 69.0638 212.555 69.5809 213.173 69.6113C213.792 69.6418 214.318 69.1752 214.348 68.5655C214.378 67.9585 213.901 67.4414 213.283 67.4109C212.665 67.3792 212.139 67.8484 212.108 68.4561Z" fill="white"/>
<path d="M194.422 69.2864C194.339 70.9652 195.52 72.3871 197.061 72.4621C198.604 72.5379 199.922 71.237 200.005 69.5595C200.09 67.8814 198.909 66.4589 197.366 66.3838C195.825 66.3088 194.506 67.6077 194.422 69.2864Z" fill="#CF9166"/>
<path d="M194.458 68.5765C194.372 70.2553 195.556 71.6765 197.097 71.7522C198.64 71.8273 199.958 70.5284 200.041 68.8483C200.126 67.1708 198.943 65.7477 197.401 65.6732C195.861 65.5988 194.541 66.899 194.458 68.5765Z" fill="black"/>
<path d="M195.457 67.8012C195.427 68.4082 195.902 68.926 196.522 68.9557C197.141 68.9862 197.667 68.5176 197.698 67.9092C197.728 67.3022 197.252 66.7844 196.632 66.754C196.014 66.7243 195.488 67.1922 195.457 67.8012Z" fill="white"/>
<path d="M205.394 67.8394C205.394 67.8394 205.804 71.5348 204.064 71.228C200.695 70.6378 200.686 77.8564 205.772 75.1693C207.692 74.1558 207.06 67.8898 207.06 67.8898L205.394 67.8394Z" fill="#F48470"/>
<path d="M201.824 78.4201C201.824 78.4201 208.601 79.5475 211.822 75.6644C211.822 75.6644 214.529 82.9199 207.253 83.8499C202.656 84.4363 201.824 78.4201 201.824 78.4201Z" fill="#B43128"/>
<path d="M204.129 82.9956C204.899 83.6305 205.916 84.0195 207.252 83.8499C208.903 83.6383 210.039 83.1011 210.811 82.3983C211.032 82.1867 211.23 81.9608 211.409 81.7252C211.414 81.7207 211.418 81.7149 211.421 81.7097C211.424 81.7065 211.425 81.7045 211.427 81.7013C211.981 80.9169 212.22 80.0173 212.29 79.1566C208.201 78.0874 205.27 81.2845 204.129 82.9956Z" fill="#F05736"/>
<path d="M201.824 78.4201C201.824 78.4201 201.833 78.4719 201.848 78.5638C202.507 78.7003 203.729 80.1338 205.372 80.0756C206.412 80.0426 207.432 79.7552 208.368 79.3139C208.949 79.0414 209.548 78.778 210.05 78.3755C210.435 78.068 210.712 77.1562 210.874 76.5925C207.438 79.3527 201.826 78.4201 201.824 78.4201Z" fill="white"/>
<path d="M206.579 84.2512C202.305 84.2053 201.467 78.5308 201.461 78.4693C201.445 78.3567 201.484 78.2415 201.568 78.1619C201.653 78.0816 201.769 78.0448 201.886 78.0648C201.951 78.0745 208.492 79.1087 211.536 75.436C211.62 75.3357 211.752 75.2852 211.883 75.3085C212.014 75.3292 212.122 75.4178 212.168 75.5415C212.222 75.6845 213.468 79.1068 211.891 81.6664C211.022 83.0746 209.477 83.9315 207.301 84.2091C207.049 84.2402 206.81 84.2538 206.579 84.2512ZM202.278 78.8466C202.571 80.2037 203.705 83.938 207.207 83.4895C209.147 83.2429 210.511 82.5025 211.259 81.293C212.292 79.6226 211.923 77.4312 211.656 76.388C208.744 79.277 203.874 79.0201 202.278 78.8466Z" fill="#F05B4E"/>
<path d="M199.187 78.0247C199.171 79.5734 197.881 80.8153 196.304 80.7979C194.728 80.781 193.463 79.5113 193.479 77.9619C193.497 76.4132 194.788 75.1713 196.364 75.1874C197.94 75.2062 199.204 76.4753 199.187 78.0247Z" fill="#F49B77"/>
<path d="M219.674 76.441C219.658 77.991 218.367 79.2329 216.789 79.2161C215.215 79.1986 213.951 77.9302 213.966 76.3815C213.984 74.8328 215.274 73.5908 216.85 73.607C218.426 73.6245 219.691 74.8942 219.674 76.441Z" fill="#F49B77"/>
<path d="M193.633 64.5795C193.633 64.5795 193.697 64.463 193.844 64.2838C193.919 64.197 194.009 64.0838 194.128 63.9751C194.242 63.8592 194.379 63.7401 194.537 63.6159C194.694 63.4923 194.873 63.3673 195.068 63.2483C195.266 63.1324 195.478 63.0088 195.711 62.9111C195.937 62.8004 196.183 62.7143 196.436 62.6315C196.687 62.5435 196.953 62.4962 197.214 62.4289C197.48 62.3869 197.747 62.3467 198.01 62.3209C198.273 62.306 198.534 62.2989 198.782 62.2989C199.034 62.3137 199.275 62.3345 199.503 62.3571C199.732 62.383 199.943 62.4361 200.137 62.4749C200.33 62.5195 200.508 62.5564 200.661 62.6153C200.814 62.6671 200.946 62.7189 201.054 62.7596C201.267 62.8425 201.387 62.9014 201.387 62.9014C201.387 62.9014 201.251 62.9208 201.023 62.9363C200.91 62.9447 200.771 62.9557 200.614 62.9616C200.46 62.9622 200.284 62.9829 200.093 62.9972C199.904 63.0153 199.701 63.0146 199.486 63.0386C199.272 63.0619 199.049 63.0839 198.818 63.1007C198.588 63.1318 198.354 63.1674 198.112 63.1926C197.876 63.2334 197.635 63.2735 197.395 63.3162C197.275 63.3421 197.156 63.3686 197.038 63.3939C196.918 63.4204 196.799 63.4392 196.685 63.4741C196.569 63.5065 196.453 63.5343 196.339 63.5622C196.223 63.588 196.116 63.6301 196.004 63.6599C195.782 63.7194 195.573 63.7938 195.37 63.8592C195.267 63.889 195.174 63.933 195.08 63.9647C194.985 63.9996 194.891 64.0294 194.806 64.0676C194.631 64.1349 194.469 64.1996 194.33 64.2611C194.184 64.32 194.063 64.3795 193.957 64.4248C193.859 64.4753 193.772 64.509 193.721 64.5387C193.662 64.5653 193.633 64.5795 193.633 64.5795Z" fill="black"/>
<path d="M217.933 65.4739C217.933 65.4739 217.872 65.3561 217.729 65.173C217.654 65.085 217.569 64.9698 217.454 64.8572C217.341 64.74 217.205 64.6177 217.052 64.4889C216.898 64.3627 216.721 64.2359 216.527 64.1116C216.329 63.9912 216.122 63.8631 215.892 63.7608C215.668 63.6443 215.424 63.5531 215.174 63.4644C214.925 63.3706 214.659 63.3175 214.4 63.2457C214.135 63.1971 213.871 63.1512 213.607 63.1208C213.343 63.0994 213.083 63.0871 212.833 63.0819C212.582 63.091 212.34 63.1065 212.112 63.1247C211.886 63.1454 211.673 63.1939 211.477 63.2282C211.282 63.2677 211.104 63.3026 210.951 63.3564C210.796 63.4055 210.663 63.4547 210.556 63.4929C210.337 63.5719 210.218 63.6275 210.218 63.6275C210.218 63.6275 210.353 63.6502 210.58 63.6715C210.694 63.6825 210.832 63.6968 210.989 63.7052C211.144 63.7091 211.319 63.7324 211.51 63.7518C211.697 63.7738 211.902 63.7783 212.117 63.8061C212.33 63.834 212.552 63.8618 212.783 63.8825C213.012 63.9194 213.247 63.9602 213.487 63.9893C213.723 64.0346 213.961 64.0818 214.202 64.1284C214.32 64.1569 214.438 64.1854 214.557 64.2139C214.673 64.2423 214.793 64.2637 214.908 64.3025C215.022 64.3375 215.137 64.3679 215.25 64.397C215.366 64.4255 215.474 64.4695 215.582 64.5019C215.804 64.5666 216.011 64.6455 216.213 64.7161C216.315 64.7465 216.406 64.7931 216.501 64.8267C216.595 64.863 216.688 64.896 216.772 64.9342C216.944 65.0073 217.105 65.0733 217.245 65.1387C217.389 65.2008 217.509 65.2629 217.611 65.3102C217.71 65.3633 217.794 65.3988 217.848 65.4293C217.903 65.4577 217.933 65.4739 217.933 65.4739Z" fill="black"/>
<path d="M225.068 64.9471C225.068 64.9471 225.386 62.6671 225.396 59.7108C225.343 62.7188 225.068 64.9471 225.068 64.9471Z" fill="#CF9166"/>
<path d="M224.542 73.044C224.542 73.044 227.134 72.5211 229.116 67.0129C230.471 63.2489 230.14 55.0135 225.765 50.6418C223.198 48.0764 222.318 49.0705 222.318 49.0705C222.318 49.0705 219.701 44.8172 213.106 42.8135C206.51 40.8099 199.189 42.6556 194.254 46.0825C189.319 49.5093 190.014 49.4005 183.111 51.876C176.209 54.3508 188.663 64.3666 207.341 60.2013C214.884 58.5193 219.644 57.7783 219.644 57.7783C219.644 57.7783 219.354 60.1418 220.491 63.6443C221.629 67.1469 224.785 71.1367 224.785 71.1367" fill="#361710"/>
<path d="M213.865 103.793L208.524 126.436C207.825 129.397 205.183 131.488 202.142 131.488L181.182 134.509L185.472 139.357H209.103C212.17 139.357 214.827 137.231 215.5 134.24L221.802 106.249L213.865 103.793Z" fill="#EDAC7C"/>
<path d="M183.64 134.318C183.64 134.318 179.631 132.998 177.689 132.998C175.748 132.998 170.869 134.724 169.533 136.019C168.197 137.313 167.848 139.357 169.533 139.357C171.217 139.357 173.375 136.995 174.669 138.176C175.963 139.357 177.905 139.357 179.631 139.357C181.357 139.357 188.861 139.357 188.861 139.357L183.64 134.318Z" fill="#EDAC7C"/>
<path d="M223.008 114.238L208.382 110.483L211.324 99.0225C212.362 94.9834 216.477 92.55 220.516 93.5874C224.555 94.6249 226.988 98.7396 225.951 102.779L223.008 114.238Z" fill="#9F9DAE"/>
<path d="M196.84 143.529H156.908V139.475H196.84C197.96 139.475 198.867 140.382 198.867 141.502C198.867 142.622 197.96 143.529 196.84 143.529Z" fill="#C5C4D7"/>
<path d="M168.396 143.529H129.636C127.845 143.529 126.205 142.525 125.392 140.929L113.474 117.551C113.152 116.92 113.611 116.172 114.319 116.172H152.823C153.822 116.172 154.736 116.733 155.191 117.622L168.396 143.529Z" fill="#9F9DAE"/>
<path d="M113.867 118.321H152.227C153.226 118.321 154.14 118.882 154.594 119.772L166.705 143.528H168.397L155.191 117.622C154.737 116.732 153.822 116.172 152.823 116.172H114.319C113.611 116.172 113.153 116.92 113.474 117.551L113.867 118.321Z" fill="#C5C4D7"/>
<path d="M211.153 148.846V152.762C211.153 161.808 203.819 169.142 194.773 169.142H177.649C174.879 169.142 172.435 170.96 171.641 173.614L165.886 229.546H148.555L158.258 162.83C160.026 157.132 164.722 152.825 170.552 151.555L182.983 148.846H211.153V148.846Z" fill="#1C1B2D"/>
<path d="M224.812 148.846V152.762C224.812 161.808 217.478 169.142 208.432 169.142H191.308C188.537 169.142 186.094 170.96 185.299 173.614L179.545 229.546H162.214L171.916 162.83C173.685 157.132 178.381 152.825 184.211 151.555L196.642 148.846H224.812V148.846Z" fill="#353B4F"/>
<path d="M218.417 182.733H202.019C200.964 182.733 200.102 181.87 200.102 180.815C200.102 179.76 200.964 178.897 202.019 178.897H218.418C219.472 178.897 220.335 179.76 220.335 180.815C220.335 181.87 219.472 182.733 218.417 182.733Z" fill="#3A4178"/>
<path d="M214.122 180.815H206.315V232.565H214.122V180.815Z" fill="#3A4178"/>
<path d="M225.004 239.758H195.432C195.432 234.118 200.005 229.546 205.645 229.546H214.791C220.432 229.545 225.004 234.117 225.004 239.758Z" fill="#3A4178"/>
<path d="M165.498 229.545V239.816L140.141 239.767C137.557 239.762 135.667 237.329 136.301 234.824C136.654 233.429 137.734 232.335 139.124 231.963L148.167 229.544H165.498V229.545Z" fill="#29576C"/>
<path d="M179.098 229.545V239.816L153.741 239.767C151.157 239.762 149.266 237.329 149.901 234.824C150.253 233.429 151.333 232.335 152.724 231.963L161.767 229.544H179.098V229.545Z" fill="#4784B7"/>
<path d="M16.1861 168.552H52.5357C56.807 168.552 59.852 165.035 59.3019 160.737L51.9461 103.262C51.396 98.9635 47.4508 95.4467 43.1794 95.4467H6.82986C2.55847 95.4467 -0.485858 98.9635 0.0642451 103.262L7.42009 160.737C7.96955 165.035 11.9148 168.552 16.1861 168.552Z" fill="#D4AF37"/>
<path d="M25.7735 168.552H62.123C66.3944 168.552 69.4387 165.035 68.8886 160.737L61.5327 103.262C60.9826 98.9635 57.0374 95.4467 52.766 95.4467H16.4172C12.1458 95.4467 9.1008 98.9635 9.6509 103.262L17.0068 160.737C17.5569 165.035 21.5021 168.552 25.7735 168.552Z" fill="#800000"/>
<path d="M63.9461 178.897H17.5964C14.4006 178.897 11.786 176.282 11.786 173.086C11.786 169.891 14.4006 167.276 17.5964 167.276H63.9461C67.1419 167.276 69.7565 169.891 69.7565 173.086C69.7565 176.282 67.1419 178.897 63.9461 178.897Z" fill="#D4AF37"/>
<path d="M61.7625 103.793L67.1036 126.436C67.8019 129.396 70.4444 131.488 73.4855 131.488L94.4451 134.509L90.1549 139.357H66.5238C63.4574 139.357 60.8001 137.231 60.127 134.24L53.8254 106.249L61.7625 103.793Z" fill="#EDAC7C"/>
<path d="M52.6198 114.238L67.2461 110.483L64.3033 99.0224C63.2665 94.9834 59.1511 92.55 55.1121 93.5874C51.073 94.6248 48.6396 98.7396 49.6771 102.779L52.6198 114.238Z" fill="#B1B9C5"/>
<path d="M34.4328 91.9565H53.6398C58.403 91.9565 62.1903 95.9541 61.934 100.71L59.8508 143.887H27.4775V98.9117C27.4775 95.0707 30.5918 91.9565 34.4328 91.9565Z" fill="#279E8A"/>
<path d="M26.8808 69.7239C26.8808 69.7239 23.4908 65.3723 20.3721 68.2322C17.252 71.092 21.7111 79.9053 27.6859 77.8324L26.8808 69.7239Z" fill="#EDAC7C"/>
<path d="M27.185 72.7974L27.6005 76.9717C22.4327 77.8997 19.4835 70.7037 21.8606 69.7064C23.7828 68.8987 26.1689 71.4234 27.185 72.7974Z" fill="#F7A588"/>
<path d="M21.0284 71.1956C21.0284 71.1956 21.0381 71.1639 21.0536 71.1037C21.0698 71.0435 21.0983 70.9587 21.1319 70.8532C21.2083 70.6468 21.3416 70.3471 21.5953 70.1323C21.6587 70.0779 21.7325 70.0352 21.8076 69.9983C21.847 69.9808 21.8852 69.9634 21.9299 69.9491L21.9597 69.9381L21.9609 69.9375C21.9389 69.9465 21.9564 69.9401 21.9525 69.9414L21.9564 69.9394L21.9681 69.9368L21.9875 69.9317L22.069 69.9103C22.1279 69.8922 22.1726 69.8864 22.2159 69.8792C22.2586 69.8715 22.3065 69.8656 22.3609 69.8624C22.4101 69.8579 22.4625 69.8546 22.5123 69.8566C22.5654 69.8559 22.6172 69.854 22.6709 69.8611C23.0948 69.8909 23.5433 70.0566 23.9717 70.2863C24.1892 70.3983 24.3963 70.5322 24.6008 70.6675C24.8027 70.806 25.0007 70.9484 25.1891 71.0927C25.5657 71.3839 25.9068 71.6758 26.2026 71.9276C26.7921 72.4492 27.1843 72.7961 27.1843 72.7961C27.1843 72.7961 27.1332 72.6731 27.0238 72.4686C26.9112 72.2647 26.7423 71.9787 26.508 71.6577C26.389 71.4978 26.2589 71.3237 26.1068 71.1516C25.956 70.9781 25.789 70.7995 25.6059 70.6254C25.2376 70.2779 24.8072 69.9349 24.3115 69.6702C24.0623 69.5401 23.8002 69.4262 23.5245 69.3498C23.2495 69.2722 22.9595 69.2314 22.6774 69.2418C22.6075 69.2424 22.5382 69.2495 22.467 69.2586C22.3984 69.2631 22.3311 69.2787 22.2638 69.2935C22.1985 69.3065 22.1312 69.3252 22.0625 69.3485C21.9933 69.3705 21.9286 69.3926 21.8833 69.4165L21.805 69.4534L21.7577 69.476L21.7131 69.5006C21.6542 69.531 21.6011 69.5673 21.55 69.6055C21.4503 69.6844 21.3636 69.7712 21.295 69.8624C21.1526 70.0423 21.0821 70.2358 21.0419 70.4015C20.9992 70.5672 20.9941 70.7141 20.9934 70.8306C20.9934 70.9477 21.0064 71.0409 21.0141 71.1024C21.0232 71.1639 21.0284 71.1956 21.0284 71.1956Z" fill="#CF9166"/>
<path d="M58.3013 69.3848C58.3013 69.3848 61.5955 64.962 64.7751 67.7539C67.9573 70.5452 63.6885 79.4523 57.6697 77.5095L58.3013 69.3848Z" fill="#EDAC7C"/>
<path d="M58.0624 72.4647L57.7382 76.6461C62.9227 77.4635 65.7166 70.2067 63.3181 69.2598C61.3805 68.4949 59.0481 71.0694 58.0624 72.4647Z" fill="#F7A588"/>
<path d="M64.1824 70.7309C64.1824 70.7309 64.1733 70.6998 64.1552 70.6403C64.1377 70.5801 64.1092 70.4966 64.071 70.3911C63.9914 70.1853 63.8516 69.8889 63.5921 69.6792C63.5293 69.6274 63.4562 69.586 63.3773 69.5498C63.3371 69.5349 63.299 69.5155 63.2575 69.5051L63.2245 69.4948L63.2226 69.4941C63.2465 69.5025 63.2271 69.4948 63.2316 69.4961H63.2278L63.2174 69.4928L63.1973 69.4877L63.1139 69.4676C63.0563 69.4508 63.0103 69.4462 62.9663 69.4404C62.9229 69.432 62.875 69.4281 62.822 69.4262C62.7715 69.4229 62.7217 69.4217 62.6699 69.4236C62.6181 69.4242 62.5663 69.4249 62.5126 69.4327C62.09 69.4702 61.6428 69.6456 61.2196 69.8844C61.0066 70.0015 60.8008 70.1394 60.5989 70.2805C60.4002 70.4228 60.2048 70.5691 60.0203 70.7186C59.6508 71.0169 59.3156 71.3153 59.025 71.5735C58.447 72.1074 58.0626 72.4634 58.0626 72.4634C58.0626 72.4634 58.1118 72.3385 58.2179 72.1327C58.3228 71.9275 58.4872 71.6363 58.7163 71.3101C58.8308 71.1483 58.9583 70.9716 59.1059 70.7963C59.2528 70.6196 59.4146 70.4377 59.5945 70.2591C59.9543 69.9045 60.3769 69.5524 60.8668 69.2754C61.1115 69.1401 61.3742 69.021 61.6486 68.9382C61.9218 68.8547 62.2091 68.8075 62.4919 68.812C62.5638 68.8114 62.633 68.8178 62.7023 68.825C62.7721 68.8282 62.8388 68.8398 62.9074 68.8554C62.9721 68.8657 63.0394 68.8838 63.1087 68.9058C63.1773 68.9259 63.2433 68.9466 63.2905 68.9706L63.3682 69.0029L63.4174 69.0249L63.462 69.0482C63.5216 69.0767 63.5766 69.1129 63.629 69.1498C63.7287 69.2268 63.8173 69.3103 63.8892 69.4003C64.0348 69.5783 64.1086 69.7692 64.1526 69.9329C64.1992 70.0986 64.2069 70.2449 64.2108 70.3626C64.2141 70.4804 64.2031 70.573 64.1959 70.6345C64.1869 70.6985 64.1824 70.7309 64.1824 70.7309Z" fill="#CF9166"/>
<path d="M38.9844 83.1089L47.4909 83.0163C47.4909 83.0163 47.9621 96.3327 47.9938 96.3321C47.9938 96.3321 47.3977 98.9952 43.6247 99.0949C39.8503 99.1932 38.8899 96.4291 38.8899 96.4291C38.9197 96.3554 38.9844 83.1089 38.9844 83.1089Z" fill="#EDAC7C"/>
<path d="M39.0374 88.0068L47.5433 87.9142C47.5433 87.9142 47.9258 93.0671 47.9575 93.0671C47.9575 93.0671 47.3615 95.7302 43.5884 95.8299C39.8141 95.9282 38.8536 93.1641 38.8536 93.1641C38.8841 93.0904 39.0374 88.0068 39.0374 88.0068Z" fill="#CF9166"/>
<path d="M39.0109 85.5578L47.5175 85.4652C47.5175 85.4652 47.6437 87.1654 47.7576 88.6118C47.7751 88.8215 45.3345 89.2169 45.0698 89.2622C42.9911 89.615 40.9376 89.3697 38.9055 88.8759C38.9559 87.3938 39.0109 85.5578 39.0109 85.5578Z" fill="#CF9166"/>
<path d="M22.5421 66.2589C22.656 76.8655 31.9527 85.3675 43.3056 85.2452C54.6584 85.1229 63.7694 76.4235 63.6555 65.8149C63.5416 55.2064 54.2455 46.7056 42.8914 46.828C31.5392 46.9503 22.4275 55.649 22.5421 66.2589Z" fill="#3E150D"/>
<path d="M24.7251 65.9748C24.8661 60.0628 27.3481 54.4556 33.1623 52.0992C36.1193 50.9 39.3766 50.5544 42.5549 50.5713C45.6943 50.5881 49.0396 50.7557 52.0024 51.8611C57.3099 53.8428 56.5715 56.5862 57.1675 61.9778C57.2264 62.5066 60.8021 65.0551 60.8254 65.5858C60.8817 66.8025 60.9878 68.0005 60.9561 69.223C60.8843 71.9709 60.4766 74.7311 59.6087 77.3496C58.5557 80.5266 56.7734 83.4823 54.1569 85.6549C52.6716 86.8897 50.9559 87.8411 49.1328 88.5064C46.1241 89.6027 43.2512 89.9858 40.0865 89.4383C37.9418 89.0681 35.8468 88.3905 33.9551 87.3272C30.8176 85.5643 28.4515 82.7976 26.9585 79.585C25.7042 76.8817 25.0338 73.9325 24.7671 70.9807C24.6209 69.3647 24.5723 67.7209 24.7128 66.1042C24.7173 66.0602 24.7244 66.0175 24.7251 65.9748Z" fill="#EDAC7C"/>
<path d="M38.4155 71.1626C38.499 72.8407 37.3166 74.2625 35.775 74.3376C34.2328 74.4133 32.9151 73.1132 32.831 71.4344C32.7475 69.7556 33.9286 68.3344 35.4715 68.2593C37.0131 68.1829 38.3314 69.4838 38.4155 71.1626Z" fill="#CF9166"/>
<path d="M38.3799 70.452C38.4653 72.1308 37.2823 73.552 35.7407 73.6277C34.1978 73.7034 32.8801 72.4039 32.7966 70.7251C32.7112 69.0469 33.8936 67.6238 35.4365 67.5487C36.9768 67.4743 38.2964 68.7738 38.3799 70.452Z" fill="black"/>
<path d="M37.3807 69.676C37.4111 70.2837 36.9335 70.8008 36.3161 70.8312C35.6967 70.8616 35.1706 70.395 35.1408 69.7854C35.1104 69.1783 35.588 68.6612 36.2054 68.6308C36.8235 68.5991 37.3496 69.0676 37.3807 69.676Z" fill="white"/>
<path d="M55.0661 70.5063C55.1496 72.1851 53.9685 73.607 52.4269 73.682C50.884 73.7578 49.5664 72.4569 49.4829 70.7795C49.3981 69.1013 50.5798 67.6788 52.1227 67.6037C53.663 67.528 54.9826 68.8269 55.0661 70.5063Z" fill="#CF9166"/>
<path d="M55.0305 69.7957C55.1159 71.4745 53.9322 72.8957 52.3906 72.9714C50.8478 73.0465 49.5301 71.7476 49.4466 70.0675C49.3612 68.3901 50.5442 66.9669 52.0865 66.8925C53.6274 66.8181 54.947 68.1189 55.0305 69.7957Z" fill="black"/>
<path d="M54.0313 69.021C54.061 69.6281 53.586 70.1458 52.9667 70.1756C52.3473 70.206 51.8211 69.7375 51.7901 69.1291C51.7603 68.5221 52.236 68.0043 52.856 67.9739C53.474 67.9441 54.0008 68.412 54.0313 69.021Z" fill="white"/>
<path d="M44.0952 69.0586C44.0952 69.0586 43.6855 72.754 45.4251 72.4473C48.7937 71.857 48.8028 79.0757 43.7172 76.3886C41.7964 75.3751 42.4293 69.1091 42.4293 69.1091L44.0952 69.0586Z" fill="#F48470"/>
<path d="M47.6644 79.64C47.6644 79.64 40.8871 80.7674 37.6667 76.8843C37.6667 76.8843 34.9589 84.1398 42.2358 85.0698C46.8321 85.6562 47.6644 79.64 47.6644 79.64Z" fill="#B43128"/>
<path d="M45.3597 84.2156C44.5889 84.8504 43.5722 85.2394 42.2358 85.0698C40.5848 84.8582 39.4497 84.3211 38.6776 83.6182C38.4562 83.4066 38.2582 83.1807 38.0796 82.9452C38.0744 82.9406 38.0705 82.9348 38.0673 82.9296C38.064 82.9264 38.0634 82.9244 38.0615 82.9212C37.5075 82.1368 37.268 81.2372 37.1981 80.3765C41.287 79.3067 44.2181 82.5038 45.3597 84.2156Z" fill="#F05736"/>
<path d="M47.6644 79.64C47.6644 79.64 47.6553 79.6918 47.6404 79.7837C46.9809 79.9202 45.7597 81.3537 44.1159 81.2955C43.0759 81.2618 42.0559 80.9751 41.1207 80.5337C40.5389 80.2613 39.9403 79.9979 39.4381 79.5953C39.053 79.2879 38.7766 78.376 38.6142 77.813C42.0501 80.5726 47.6624 79.64 47.6644 79.64Z" fill="white"/>
<path d="M42.1873 85.4284C40.0108 85.1507 38.4666 84.2939 37.5968 82.8856C36.0196 80.326 37.2661 76.9037 37.3198 76.7607C37.3664 76.6371 37.4745 76.5484 37.6052 76.5277C37.7366 76.505 37.868 76.5555 37.9521 76.6558C40.9965 80.3286 47.5375 79.2944 47.6022 79.2847C47.7194 79.264 47.8352 79.3015 47.9206 79.3818C48.0041 79.4614 48.0442 79.5766 48.0274 79.6892C48.0209 79.7507 47.1835 85.4251 42.9095 85.4711C42.6785 85.473 42.4397 85.4594 42.1873 85.4284ZM37.8324 77.6078C37.5658 78.6504 37.1962 80.8424 38.2298 82.5122C38.9779 83.7217 40.3415 84.4615 42.2818 84.7087C45.7836 85.1572 46.9175 81.423 47.2113 80.0658C45.6141 80.2399 40.7441 80.4969 37.8324 77.6078Z" fill="#F05B4E"/>
<path d="M50.3009 79.2446C50.3178 80.7933 51.6076 82.0352 53.1841 82.0177C54.76 82.0009 56.0253 80.7311 56.0097 79.1818C55.991 77.6331 54.7005 76.3911 53.1246 76.4073C51.5487 76.4261 50.2841 77.6946 50.3009 79.2446Z" fill="#F49B77"/>
<path d="M29.8138 77.6609C29.8307 79.2109 31.1218 80.4528 32.699 80.436C34.2735 80.4185 35.5375 79.1501 35.5226 77.6014C35.5038 76.0527 34.214 74.8107 32.6388 74.8269C31.0622 74.8437 29.797 76.1135 29.8138 77.6609Z" fill="#F49B77"/>
<path d="M55.8551 65.7988C55.8551 65.7988 55.7917 65.6823 55.6448 65.503C55.5697 65.4163 55.4791 65.303 55.3607 65.1943C55.2468 65.0784 55.1096 64.9594 54.951 64.8351C54.7944 64.7115 54.6151 64.5866 54.4203 64.4675C54.2223 64.3517 54.0106 64.2281 53.7783 64.1303C53.5524 64.0197 53.3065 63.9336 53.0535 63.8507C52.8024 63.7627 52.5364 63.7155 52.2749 63.6482C52.0096 63.6068 51.7423 63.566 51.4795 63.5401C51.2161 63.5252 50.9553 63.5181 50.7068 63.5181C50.455 63.533 50.2136 63.5537 49.9865 63.5763C49.7567 63.6022 49.5464 63.6553 49.3522 63.6941C49.1587 63.7388 48.9814 63.7757 48.8287 63.8346C48.6759 63.8863 48.5439 63.9381 48.4358 63.9789C48.2223 64.0617 48.1025 64.1206 48.1025 64.1206C48.1025 64.1206 48.2384 64.14 48.4663 64.1556C48.5802 64.164 48.7187 64.175 48.8753 64.1808C49.0293 64.1814 49.2053 64.2022 49.3969 64.2164C49.5859 64.2345 49.7897 64.2339 50.0033 64.2578C50.2182 64.2811 50.4408 64.3031 50.6718 64.32C50.9016 64.351 51.1359 64.3866 51.3779 64.4119C51.6141 64.4526 51.8542 64.4927 52.095 64.5355C52.2147 64.5613 52.3338 64.5879 52.4516 64.6131C52.5713 64.6397 52.6904 64.6584 52.8049 64.6934C52.9208 64.7257 53.0366 64.7536 53.1512 64.7814C53.267 64.8073 53.3738 64.8493 53.4851 64.8791C53.7078 64.9387 53.9162 65.0131 54.1194 65.0784C54.2216 65.1082 54.3148 65.1522 54.4093 65.1839C54.5044 65.2189 54.5976 65.2486 54.6831 65.2868C54.8578 65.3541 55.0196 65.4189 55.1594 65.4803C55.305 65.5392 55.426 65.5988 55.5322 65.6441C55.6299 65.6946 55.7166 65.7282 55.7684 65.758C55.826 65.7852 55.8551 65.7988 55.8551 65.7988Z" fill="black"/>
<path d="M31.5554 66.6938C31.5554 66.6938 31.6162 66.576 31.7592 66.3928C31.8343 66.3048 31.9197 66.1896 32.0343 66.077C32.1469 65.9599 32.2834 65.8376 32.4362 65.7088C32.5902 65.5826 32.7669 65.4557 32.9617 65.3315C33.1591 65.2111 33.3662 65.083 33.5966 64.9807C33.8205 64.8642 34.0645 64.773 34.3143 64.6843C34.5635 64.5905 34.8288 64.5374 35.0883 64.4655C35.3537 64.417 35.6177 64.3711 35.8811 64.3406C36.1452 64.3193 36.4053 64.307 36.6558 64.3018C36.9062 64.3109 37.1476 64.3264 37.3761 64.3445C37.6026 64.3652 37.8155 64.4138 38.011 64.4481C38.2058 64.4876 38.3844 64.5225 38.5371 64.5762C38.6918 64.6254 38.8251 64.6746 38.9326 64.7128C39.1513 64.7917 39.2704 64.8474 39.2704 64.8474C39.2704 64.8474 39.1358 64.8707 38.908 64.8914C38.7941 64.9024 38.6562 64.9166 38.4996 64.9251C38.3443 64.9289 38.1702 64.9522 37.9786 64.9716C37.7909 64.9936 37.5864 64.9982 37.3716 65.026C37.158 65.0538 36.9367 65.0817 36.7056 65.1024C36.4765 65.1393 36.2409 65.18 36.0015 65.2092C35.7653 65.2545 35.5271 65.3024 35.2864 65.3483C35.1679 65.3768 35.0501 65.4053 34.9317 65.4337C34.8146 65.4622 34.6955 65.4836 34.5803 65.5224C34.4664 65.5573 34.3512 65.5878 34.2379 65.6169C34.1227 65.6454 34.0146 65.6894 33.9059 65.7217C33.6839 65.7865 33.4775 65.8654 33.2749 65.9359C33.1733 65.9664 33.0821 66.013 32.9876 66.0466C32.8931 66.0829 32.7999 66.1159 32.7158 66.154C32.5436 66.2265 32.3825 66.2932 32.2427 66.3586C32.099 66.4207 31.9786 66.4828 31.877 66.5301C31.778 66.5831 31.6932 66.6187 31.6401 66.6491C31.5845 66.677 31.5554 66.6938 31.5554 66.6938Z" fill="black"/>
<path d="M24.4209 66.167C24.4209 66.167 24.1025 63.887 24.0921 60.9307C24.1452 63.9381 24.4209 66.167 24.4209 66.167Z" fill="#CF9166"/>
<path d="M24.9463 74.2639C24.9463 74.2639 22.4955 71.824 20.6303 66.2757C15.9447 52.3381 27.1701 50.2904 27.1701 50.2904C27.1701 50.2904 31.8006 36.1333 55.0706 43.6426C60.7885 45.4877 80.0155 54.534 58.0969 58.7976C52.856 59.8169 46.4411 56.1286 46.4411 56.1286C46.4411 56.1286 47.4533 56.0775 49.8 58.0922C52.1467 60.1062 49.8731 61.1572 42.149 61.4213C34.4249 61.6853 29.8455 58.9982 29.8455 58.9982C29.8455 58.9982 30.1361 61.3617 28.9983 64.8636C27.8606 68.3661 24.7049 72.356 24.7049 72.356" fill="#361710"/>
<path d="M38.1392 100.86L53.3019 118.505C55.2843 120.812 58.5926 121.453 61.2927 120.053L81.2905 113.088L79.7127 119.367L58.7324 130.243C56.0097 131.655 52.6729 130.99 50.6983 128.644L32.222 106.693L38.1392 100.86Z" fill="#EDAC7C"/>
<path d="M34.8289 114.341L46.0859 104.275L38.1994 95.4545C35.4198 92.3461 30.6468 92.0795 27.5384 94.8585C24.43 97.6381 24.1633 102.411 26.9423 105.519L34.8289 114.341Z" fill="#B1B9C5"/>
<path d="M73.8616 115.732C73.8616 115.732 74.5508 115.88 75.1611 113.057C75.7708 110.233 73.3911 107.161 74.3599 105.723C76.4555 102.612 77.7194 110.347 80.4072 109.375C80.9514 109.179 85.8292 106.86 85.4448 108.66C85.0843 110.347 87.1754 110.494 87.3961 111.851C87.6167 113.208 89.0121 112.295 88.6639 114.445C88.3157 116.595 88.6852 117.662 87.0809 118.637C85.4765 119.612 76.2167 121.374 76.2167 121.374L73.8616 115.732Z" fill="#EDAC7C"/>
<path d="M28.4437 69.3492H16.0891C15.3015 69.3492 14.6633 68.8224 14.6633 68.172C14.6633 67.5222 15.3015 66.9948 16.0891 66.9948H28.4431L32.3902 68.172L28.4437 69.3492Z" fill="#800000"/>
<path d="M101.286 130.033V127.722H87.8619V143.529H101.286V142.448C103.848 142.196 105.856 140.03 105.856 137.403V135.077C105.856 132.45 103.848 130.284 101.286 130.033ZM103.915 137.403C103.915 138.957 102.772 140.24 101.286 140.481V131.999C102.773 132.24 103.915 133.523 103.915 135.077V137.403Z" fill="#9F9DAE"/>
<path d="M98.0033 229.545V239.816L123.36 239.767C125.944 239.762 127.834 237.329 127.2 234.824C126.847 233.429 125.767 232.335 124.378 231.963L115.335 229.544H98.0033V229.545Z" fill="#905623"/>
<path d="M42.3199 148.846V152.762C42.3199 161.808 49.6537 169.142 58.7 169.142H75.8238C78.5943 169.142 81.0374 170.96 81.8322 173.614L98.589 229.546H115.92L95.2152 162.83C93.4465 157.131 88.7505 152.824 82.9207 151.554L70.4897 148.846H42.3199Z" fill="#1C1B2D"/>
<path d="M28.6612 148.846V152.762C28.6612 161.808 35.995 169.142 45.0413 169.142H62.1651C64.9356 169.142 67.3787 170.96 68.1735 173.614L84.9303 229.546H102.261L81.5565 162.83C79.7878 157.132 75.0918 152.825 69.262 151.555L56.831 148.846H28.6612V148.846Z" fill="#353B4F"/>
<path d="M49.8711 182.733H33.4729C32.418 182.733 31.5553 181.87 31.5553 180.815C31.5553 179.76 32.4186 178.897 33.4729 178.897H49.8711C50.926 178.897 51.7887 179.76 51.7887 180.815C51.7887 181.87 50.926 182.733 49.8711 182.733Z" fill="#3A4178"/>
<path d="M45.5953 180.815H37.789V232.565H45.5953V180.815Z" fill="#3A4178"/>
<path d="M56.7565 239.758H27.1849C27.1849 234.118 31.7573 229.546 37.3974 229.546H46.5434C52.1842 229.545 56.7565 234.117 56.7565 239.758Z" fill="#3A4178"/>
<path d="M84.4034 229.545V239.816L109.76 239.767C112.344 239.762 114.235 237.329 113.6 234.824C113.248 233.429 112.167 232.335 110.777 231.963L101.734 229.544H84.4034V229.545Z" fill="#DD8D37"/>
<path d="M248.935 143.529H4.13629V148.846H248.935V143.529Z" fill="#F79F7D"/>
<path d="M248.935 143.529H197.699V148.846H248.935V143.529Z" fill="#BE784A"/>
<path d="M25.0202 148.846H19.3477V239.816H25.0202V148.846Z" fill="#9F9DAE"/>
<path d="M186.466 148.846H180.794V239.816H186.466V148.846Z" fill="#9F9DAE"/>
<path d="M80.5561 148.846H74.8835V239.816H80.5561V148.846Z" fill="#9F9DAE"/>
<path d="M235.813 148.846H230.141V239.816H235.813V148.846Z" fill="#9F9DAE"/>
</svg>
